<svg id="Layer_1" data-name="Layer 1" xmlns="http://www.w3.org/2000/svg" viewBox="0 0 250 250"><defs><style>.cls-1{fill:#fff;}</style></defs><path class="cls-1" d="M184,21.74H58.5A40.53,40.53,0,0,0,18,62.26V187.74A40.53,40.53,0,0,0,58.5,228.26H184a40.52,40.52,0,0,0,40.52-40.52V62.26A40.52,40.52,0,0,0,184,21.74Zm-6.77,98.42h0c0,6.22,0,12.44,0,18.66a4,4,0,0,1-.37,1.11,5,5,0,0,1-.94-.59q-8.07-8-16.11-15.94c-1.67-1.64-3.34-3.28-5-4.94-.71-.7-.7-1,.11-1.64l14.41-11c2.22-1.7,4.42-3.43,6.64-5.12a3.89,3.89,0,0,1,.94-.35,3.73,3.73,0,0,1,.3,1C177.22,107.59,177.21,113.87,177.21,120.16ZM65.64,87.65a5.09,5.09,0,0,1,4.87-2.81l100.78-.18a6.42,6.42,0,0,1,3.83.91,5,5,0,0,1,2,5.24c-.06.49-.62,1-1.06,1.32-3.52,2.74-7.07,5.44-10.61,8.15q-10.78,8.25-21.54,16.5T122.18,133.4a1.28,1.28,0,0,1-1.86,0Q108.26,124.12,96.15,115L66.23,92.21C65.15,91.39,64.86,89.09,65.64,87.65Zm-.38,32.6q0-9.44,0-18.87a3.41,3.41,0,0,1,.31-.95,3.89,3.89,0,0,1,.84.34l12,9.11c3.1,2.37,6.2,4.75,9.32,7.09.79.59.53,1.06,0,1.59q-2.53,2.5-5.06,5-8.15,8.12-16.28,16.22a3.1,3.1,0,0,1-.79.41,4,4,0,0,1-.26-1q0-9.48,0-19Zm107.05,45q-11.15,0-22.28,0H121.09v0q-25.26,0-50.53,0a4.9,4.9,0,0,1-4.83-3,4.31,4.31,0,0,1-.38-1.78c0-2.61-.09-5.22,0-7.82a3.12,3.12,0,0,1,.88-1.84c4.91-4.94,9.87-9.84,14.82-14.75,4.32-4.3,8.65-8.58,13-12.9a1.18,1.18,0,0,1,1.84-.12q8.19,6.27,16.39,12.49,4,3.07,8.06,6.17a1.39,1.39,0,0,0,1.94,0q12.22-9.41,24.47-18.79a1.17,1.17,0,0,1,1.79.1q14,13.86,28,27.71a2.73,2.73,0,0,1,.72,1.7c.07,2.61-.05,5.22.05,7.82C177.38,163.13,174.77,165.23,172.31,165.24Z"/></svg>