<svg id="Layer_1" data-name="Layer 1" xmlns="http://www.w3.org/2000/svg" viewBox="0 0 250 250"><defs><style>.cls-1{fill:#fff;}</style></defs><path class="cls-1" d="M179,21.74H53.5A40.52,40.52,0,0,0,13,62.26V187.74A40.52,40.52,0,0,0,53.5,228.26H179a40.52,40.52,0,0,0,40.52-40.52V62.26A40.52,40.52,0,0,0,179,21.74Zm-31.1,102.1c-.13,1.27-.87,1.32-1.87,1.31-6.38,0-12.76,0-19.14,0h-2.1V189.6H99.23V125.23h-17V100.79h17c0-4,0-7.65,0-11.32.16-14.56,8.39-24.71,22.55-27.83,9.31-2,18.74-.89,28.12-1.11.1,0,.2.15.23.18V84.79c-1,0-1.81,0-2.64,0-5.42,0-10.83,0-16.24.08-1.73,0-3.44.55-3.52,2.56-.16,4.41,0,8.84,0,13.41h22.5a5.44,5.44,0,0,1,.08.87C149.47,109.09,148.65,116.46,147.88,123.84Z"/></svg>