<svg id="Layer_1" data-name="Layer 1" xmlns="http://www.w3.org/2000/svg" viewBox="0 0 250 250"><defs><style>.cls-1{fill:#fff;}</style></defs><path class="cls-1" d="M181.69,92.94a29.49,29.49,0,0,0-1.39-9.41,27.69,27.69,0,0,0-26.74-18.75c-21.35.14-42.7,0-64,0a29.72,29.72,0,0,0-9.41,1.38A27.69,27.69,0,0,0,61.36,93c.14,21.34,0,42.69,0,64a30.3,30.3,0,0,0,1.81,10.62c3.66,9.88,13.63,17.24,24.18,17.39,11.38.17,22.77,0,34.16,0v.07q15.94,0,31.88,0a29.77,29.77,0,0,0,9.55-1.38A27.69,27.69,0,0,0,181.72,157C181.58,135.64,181.68,114.29,181.69,92.94Zm-60.16,69.75A37.73,37.73,0,1,1,159.27,125,37.81,37.81,0,0,1,121.53,162.69Zm39.34-67.43a9.54,9.54,0,0,1-9.57-9.5,9.55,9.55,0,1,1,9.57,9.5Z"/><path class="cls-1" d="M184.27,21.74H58.79A40.52,40.52,0,0,0,18.27,62.26V187.74a40.52,40.52,0,0,0,40.52,40.52H184.27a40.52,40.52,0,0,0,40.52-40.52V62.26A40.52,40.52,0,0,0,184.27,21.74Zm10.46,139.53c-.1.51-.18,1-.32,1.51-1,3.62-1.43,7.46-3,10.8-7.36,15.86-19.91,24.32-37.46,24.51-21.63.24-43.26.09-64.89,0a41.85,41.85,0,0,1-8.22-.77,40.26,40.26,0,0,1-32.48-39.6q-.07-32.81,0-65.6a35.78,35.78,0,0,1,.77-7.8Q54.8,59.83,79.09,53c2-.56,4.09-.81,6.14-1.2h72.62c1.45.25,2.91.44,4.34.77,16.32,3.85,26.81,13.83,31.34,30,.56,2,.81,4.08,1.2,6.13Z"/><path class="cls-1" d="M121.52,100.31A24.66,24.66,0,1,0,146.2,125,24.59,24.59,0,0,0,121.52,100.31Z"/></svg>