<svg id="Layer_1" data-name="Layer 1" xmlns="http://www.w3.org/2000/svg" viewBox="0 0 250 250"><defs><style>.cls-1{fill:#fff;}</style></defs><path class="cls-1" d="M176.3,21.74H50.82A40.52,40.52,0,0,0,10.3,62.26V187.74a40.52,40.52,0,0,0,40.52,40.52H176.3a40.52,40.52,0,0,0,40.52-40.52V62.26A40.52,40.52,0,0,0,176.3,21.74Zm-5.47,89.2c-11.36,1.29-21.11-3.21-30.81-8.86v39a60,60,0,0,1-2.83,19.19c-4.64,13.77-13.32,23.85-27.18,29a89.52,89.52,0,0,1-9.38,2.41h-8.5a3.36,3.36,0,0,0-.65-.28c-17.66-2.91-28.2-13.71-33.53-30.2a75.94,75.94,0,0,1-1.66-7.85v-8.84a8.68,8.68,0,0,0,.36-1.2,40.28,40.28,0,0,1,11.44-23.93c7-7,15.6-10.74,25.21-12.41,3.1-.54,6.26-.75,9.52-1.12v22.39c-3.89,1-7.55,1.86-11.09,3-10,3.33-14.38,9.42-14,19,.48,13.37,15.52,22.86,27.8,17.48,6.28-2.74,9.33-8.05,11-14.34,1.49-5.47,1.09-11.06,1.08-16.65q-.06-38.22,0-76.44v-2h21.88c.73,3.08,1.27,6.1,2.16,9,4.24,14,14.81,21.48,29.2,22.21Z"/></svg>