<svg id="Layer_1" data-name="Layer 1" xmlns="http://www.w3.org/2000/svg" viewBox="0 0 250 250"><defs><style>.cls-1{fill:#fff;}</style></defs><path class="cls-1" d="M180.14,21.74H54.66A40.52,40.52,0,0,0,14.14,62.26V187.74a40.52,40.52,0,0,0,40.52,40.52H180.14a40.52,40.52,0,0,0,40.52-40.52V62.26A40.52,40.52,0,0,0,180.14,21.74Zm2.58,63.32A52.32,52.32,0,0,1,171,97.18a2.24,2.24,0,0,0-1,2.16,76.35,76.35,0,0,1-5.42,30.44c-5.42,13.79-13.81,25.43-25.76,34.29-16.69,12.36-35.58,16.47-56,14.16a73.86,73.86,0,0,1-27-8.67c-1.51-.82-3-1.74-4.46-2.61C65.93,168,79,164.47,91,155.49A27.66,27.66,0,0,1,75.37,150a26.9,26.9,0,0,1-9.48-13.07c2,0,3.92.09,5.84,0s3.75-.41,5.63-.62c-15.46-4.17-21.72-18.22-21-27.13a26.82,26.82,0,0,0,11.75,3.17c-13.89-10.17-13.77-26.9-8-36.11,14.66,17.25,33.21,26.8,56,28.33a30.1,30.1,0,0,1-.22-10.44C117.74,84,123.45,76.9,133,73a55.48,55.48,0,0,1,6.8-1.87h5.95c.11.08.21.2.32.21a27.26,27.26,0,0,1,16.07,7.86,1.52,1.52,0,0,0,1.22.29c3.49-1.07,7-2.1,10.43-3.35,2-.73,3.9-1.84,6-2.87a28.15,28.15,0,0,1-11.2,14.63,52.78,52.78,0,0,0,14.85-4C183.08,84.51,182.91,84.79,182.72,85.06Z"/></svg>