<svg id="Layer_1" data-name="Layer 1" xmlns="http://www.w3.org/2000/svg" viewBox="0 0 250 250"><defs><style>.cls-1{fill:#fff;}</style></defs><path class="cls-1" d="M115.46,143.4l32-18.44-32-18.44Z"/><path class="cls-1" d="M190.43,21.74H65A40.53,40.53,0,0,0,24.42,62.26V187.74A40.53,40.53,0,0,0,65,228.26H190.43A40.52,40.52,0,0,0,231,187.74V62.26A40.52,40.52,0,0,0,190.43,21.74Zm-2.79,127.81c-.58,4.12-1.44,8.17-4.5,11.37-2.25,2.35-4.84,4.17-8.07,4.56-6.29.76-12.6,1.53-18.92,1.84-9.48.46-19,.52-27,.72-15.61-.32-29.77-.2-43.86-1.71-3.76-.4-7.54-.89-10.72-3.31a14.6,14.6,0,0,1-6-9.18c-.72-4.13-1.45-8.28-1.76-12.45a191.37,191.37,0,0,1,.88-40.95c.57-4.08,1.38-8.12,4.36-11.3a15.14,15.14,0,0,1,8.41-4.79c8.2-1.53,16.51-1.74,24.81-2,19.49-.61,39-.58,58.45.68a90.17,90.17,0,0,1,10.86,1.32c6.54,1.21,10.81,5.22,12.09,11.68a132.64,132.64,0,0,1,2.12,17.34A178,178,0,0,1,187.64,149.55Z"/></svg>